<svg width="178" height="59" viewBox="0 0 178 59" fill="none" xmlns="http://www.w3.org/2000/svg">
<g clip-path="url(#clip0_10901_1244)">
<path d="M73.3392 22.0351C74.6698 22.0378 75.6018 22.5577 76.1346 23.5997C76.6673 24.6416 76.9331 26.2298 76.9331 28.3623V31.3121C76.9331 33.3805 76.6667 34.9337 76.1346 35.9763C75.5991 37.0182 74.6671 37.5375 73.3358 37.5375C72.6577 37.5436 71.9962 37.3284 71.4515 36.9245C70.8951 36.5171 70.4824 35.9547 70.216 35.2378H70.1654L70.3138 36.8125V41.6392H67.1913V22.3871H70.3138V22.9361L70.1654 24.3354H70.2396C70.506 23.6024 70.914 23.0345 71.4643 22.6346C72.0079 22.237 72.6658 22.0266 73.3392 22.0351ZM38.5468 22.0351C40.1924 22.0378 41.3928 22.4802 42.1522 23.3623C42.9109 24.2471 43.2892 25.4462 43.2892 26.9629V37.1888H40.1924V36.389L40.3178 35.4138H40.2672C39.7162 36.8287 38.7606 37.5382 37.3943 37.5382C36.2127 37.5382 35.3023 37.1592 34.6602 36.3998C34.0189 35.6431 33.6992 34.6464 33.6992 33.4122V32.3864C33.6992 31.1867 34.0398 30.2149 34.7243 29.473C35.3765 28.7649 36.3456 28.4742 37.8953 28.3623C38.385 28.3272 38.9015 28.2766 39.3649 28.0851C39.8734 27.872 40.1951 27.3628 40.1951 26.8105L40.191 26.6257C40.1674 26.1395 40.0487 25.7166 39.8336 25.3612C39.5908 24.9613 39.1625 24.761 38.5475 24.761C37.9992 24.761 37.5993 24.9431 37.3491 25.3106C37.0995 25.6782 36.9741 26.1287 36.9741 26.6614V27.3358H33.9521V26.7606C33.9521 25.428 34.3224 24.3058 35.0622 23.3973C35.8054 22.4883 36.966 22.0344 38.5482 22.0344L38.5468 22.0351ZM109.922 22.0351C111.568 22.0378 112.768 22.4802 113.527 23.3623C114.285 24.2471 114.664 25.4462 114.664 26.9629V37.1888H111.568V36.389L111.692 35.4138H111.642C111.091 36.8287 110.135 37.5382 108.769 37.5382C107.587 37.5382 106.677 37.1592 106.035 36.3998C105.394 35.6431 105.074 34.6464 105.074 33.4122V32.3864C105.074 31.1867 105.415 30.2149 106.099 29.473C106.751 28.7649 107.72 28.4742 109.27 28.3623C109.76 28.3272 110.276 28.2766 110.74 28.0851C111.248 27.872 111.57 27.3628 111.57 26.8105L111.566 26.6257C111.542 26.1395 111.424 25.7166 111.208 25.3612C110.965 24.9613 110.537 24.761 109.922 24.761C109.374 24.761 108.975 24.9431 108.724 25.3106C108.474 25.6782 108.349 26.1287 108.349 26.6614V27.3358H105.327V26.7606C105.327 25.428 105.697 24.3058 106.437 23.3973C107.18 22.4883 108.341 22.0351 109.922 22.0351ZM54.6866 18.0622V37.1868H51.5641V36.6109L51.7395 35.2358H51.6653C51.3982 35.9527 50.9861 36.5151 50.4291 36.9225C49.8845 37.3271 49.2226 37.5426 48.5441 37.5362C47.2108 37.5362 46.2788 37.0162 45.746 35.9743C45.2133 34.9323 44.9476 33.3461 44.9476 31.2116V28.2611C44.9476 26.1799 45.2139 24.6207 45.746 23.5875C46.2788 22.553 47.2135 22.0364 48.5448 22.0364C49.2604 22.0364 49.8869 22.2279 50.419 22.6117C50.9518 22.9954 51.3665 23.5686 51.6673 24.3361H51.7179L51.5695 22.7607L51.5634 22.7634V18.0622H54.6859H54.6866ZM141.529 19.1601V22.3851H144.128V25.0847H141.529V32.7358C141.529 33.4183 141.644 33.914 141.868 34.2228C142.094 34.5324 142.448 34.6868 142.93 34.6868C143.332 34.6868 143.78 34.6443 144.279 34.5614L144.277 34.5621L144.301 37.232C143.501 37.4094 142.809 37.5092 142.219 37.5287L142.003 37.5328C140.739 37.5328 139.823 37.1868 139.256 36.4962C138.689 35.8063 138.406 34.7853 138.406 33.4345V25.084H136.884V22.3844H138.407V19.1594L141.529 19.1601ZM83.2589 22.0276C84.7898 22.0276 85.9424 22.5287 86.7173 23.5282C87.4922 24.5276 87.8779 26.0545 87.8779 28.104V30.78H81.608V32.1302C81.608 33.9295 82.1408 34.8298 83.2057 34.8298C83.7722 34.8298 84.1802 34.6679 84.4304 34.3422C84.6779 34.0171 84.8188 33.4978 84.8532 32.781V32.0324H87.8516V32.7567C87.801 34.2572 87.3667 35.4273 86.552 36.269C85.7347 37.112 84.5875 37.5321 83.1045 37.5321C81.5392 37.5321 80.3779 36.9939 79.6192 35.9203C78.8605 34.846 78.4828 33.3832 78.4828 31.5333V27.9833C78.4828 26.1502 78.874 24.7003 79.6563 23.6341C80.4393 22.5685 81.6377 22.0357 83.2535 22.0357L83.2589 22.0276ZM94.2193 22.0384C95.6335 22.0384 96.7463 22.4673 97.5529 23.3259C98.3595 24.1837 98.7641 25.4873 98.7641 27.2381V28.1121H95.7158V27.0115C95.7158 26.2123 95.5877 25.6364 95.3301 25.287C95.0718 24.9384 94.6853 24.7623 94.1687 24.7623C93.0695 24.7623 92.5212 25.6202 92.5212 27.3365V32.1868C92.5212 33.9382 93.0695 34.8123 94.1687 34.8123C94.7177 34.8123 95.1223 34.612 95.3806 34.212C95.6389 33.8128 95.7664 33.1971 95.7664 32.3628H95.7691V31.1637H98.7904V32.1147C98.7904 33.949 98.381 35.3079 97.5664 36.1901C96.749 37.0722 95.6173 37.5146 94.1687 37.5146C90.9876 37.5146 89.398 35.5049 89.398 31.4888V28.0136C89.398 24.0293 91.0058 22.0384 94.2193 22.0384ZM131.514 22.0357C133.013 22.0357 134.139 22.3986 134.898 23.1235C135.653 23.8478 136.042 24.8365 136.058 26.0869V26.7882H133.111V26.0626C133.111 25.6788 132.997 25.3545 132.763 25.0874C132.531 24.821 132.156 24.6875 131.639 24.6875C130.707 24.6875 130.241 25.0631 130.241 25.8124V26.6115C130.241 27.062 130.396 27.4006 130.704 27.6245C131.013 27.8484 131.543 28.0615 132.291 28.2611C133.702 28.6428 134.73 29.1594 135.371 29.8095C136.013 30.4603 136.332 31.3688 136.332 32.5362V33.5356C136.332 34.7853 135.92 35.7611 135.097 36.4618C134.275 37.1632 133.121 37.5119 131.639 37.5119C130.076 37.5119 128.897 37.1201 128.106 36.3364C127.316 35.5527 126.911 34.444 126.895 33.0103V32.1362H129.967V33.0372C129.983 33.6712 130.145 34.1352 130.454 34.4258C130.763 34.7158 131.208 34.8628 131.791 34.8628C132.241 34.8628 132.595 34.7482 132.853 34.5243C133.111 34.3004 133.239 33.978 133.239 33.5619V32.5631C133.239 32.0776 133.084 31.7127 132.776 31.4618C132.467 31.2116 131.932 30.9769 131.165 30.7611C129.749 30.3612 128.721 29.8419 128.08 29.1992C127.438 28.5599 127.118 27.6886 127.118 26.5879V25.7618C127.118 24.6106 127.489 23.7015 128.229 23.0352C128.971 22.3689 130.015 22.0357 131.514 22.0357ZM60.8391 22.0357C62.3383 22.0357 63.4639 22.3986 64.2233 23.1235C64.9786 23.8478 65.3678 24.8365 65.3833 26.0869V26.7882H62.4361V26.0626C62.4361 25.6788 62.3215 25.3545 62.0881 25.0874C61.8561 24.821 61.4812 24.6875 60.9646 24.6875C60.0326 24.6875 59.5666 25.0631 59.5666 25.8124V26.6115C59.5666 27.062 59.721 27.4006 60.0299 27.6245C60.3387 27.8484 60.8681 28.0615 61.6167 28.2611C63.0276 28.6428 64.0554 29.1594 64.6967 29.8095C65.3388 30.4603 65.6577 31.3688 65.6577 32.5362V33.5356C65.6577 34.7853 65.245 35.7611 64.4229 36.4618C63.6001 37.1632 62.4469 37.5119 60.9646 37.5119C59.4013 37.5119 58.2218 37.1201 57.4307 36.3364C56.6403 35.5527 56.2357 34.444 56.2202 33.0103V32.1362H59.2921V33.0372C59.3083 33.6712 59.4708 34.1352 59.7797 34.4258C60.0885 34.7158 60.533 34.8628 61.1163 34.8628C61.5662 34.8628 61.9202 34.7482 62.1785 34.5243C62.4368 34.3004 62.5643 33.978 62.5643 33.5619V32.5631C62.5643 32.0776 62.4098 31.7127 62.101 31.4618C61.7921 31.2116 61.2573 30.9769 60.4905 30.7611C59.0742 30.3612 58.0465 29.8419 57.4044 29.1992C56.7637 28.5599 56.4434 27.6886 56.4434 26.5879V25.7618C56.4434 24.6106 56.8143 23.7015 57.5541 23.0352C58.2967 22.3689 59.34 22.0357 60.8391 22.0357ZM103.468 22.3878V37.1882H100.346V22.3871L103.468 22.3878ZM119.895 18.0622V37.1895H116.773V18.0615L119.895 18.0622ZM125.367 22.3878V37.1882H122.244V22.3871L125.367 22.3878ZM40.1977 29.5155C39.6387 29.937 39.1592 30.0968 38.5684 30.2729C37.898 30.4725 37.4287 30.5689 37.1285 30.9628C36.8939 31.2723 36.7745 31.6851 36.7745 32.1362V33.1856C36.7745 34.2707 37.2904 34.8109 38.3236 34.8109C38.9892 34.8109 39.4687 34.5688 39.7587 34.0866C40.0487 33.6044 40.1951 33.1559 40.1951 32.2367L40.1977 32.234V29.5155ZM111.573 29.5155C111.013 29.937 110.534 30.0968 109.944 30.2729C109.273 30.4725 108.804 30.5689 108.503 30.9628C108.269 31.2723 108.149 31.6851 108.149 32.1362V33.1856C108.149 34.2707 108.666 34.8109 109.699 34.8109C110.364 34.8109 110.843 34.5688 111.133 34.0866C111.423 33.6044 111.57 33.1559 111.57 32.2367L111.573 32.234V29.5155ZM49.7715 24.759C49.0715 24.759 48.6136 25.0624 48.3978 25.6701C48.182 26.2777 48.0734 27.1416 48.0734 28.2584V31.3843C48.0734 32.5672 48.1827 33.4365 48.3978 33.9854C48.6136 34.5371 49.0722 34.8116 49.7715 34.8116C50.97 34.8116 51.5688 33.7373 51.5688 31.5866H51.5715V28.0608C51.5715 27.0587 51.4461 26.2595 51.1959 25.66C50.9464 25.0577 50.4723 24.759 49.7715 24.759ZM72.1118 24.7617C71.4461 24.7617 70.9801 25.0496 70.7137 25.6249C70.4473 26.1981 70.3145 27.0027 70.3145 28.0372V31.563C70.3145 32.5625 70.4392 33.3535 70.6901 33.9369C70.9397 34.5209 71.3982 34.8116 72.1145 34.8116C72.8307 34.8116 73.2933 34.5236 73.501 33.9484C73.7087 33.3724 73.8126 32.4849 73.8126 31.2858L73.8099 31.2885V28.162C73.8099 27.0614 73.7007 26.2197 73.4855 25.6357C73.2697 25.0523 72.8111 24.7617 72.1118 24.7617ZM83.2266 24.7111C82.6621 24.7111 82.25 24.9242 81.9917 25.3477C81.7334 25.7746 81.6053 26.4537 81.6053 27.3864V28.3859H84.8269V27.435C84.8269 26.4699 84.7015 25.7719 84.4513 25.3477C84.2018 24.9242 83.791 24.7111 83.2266 24.7111ZM101.918 17.3608L102.075 17.3635C102.643 17.3851 103.059 17.522 103.328 17.7742C103.618 18.0487 103.764 18.4958 103.764 19.1115C103.764 19.7273 103.618 20.1643 103.328 20.4232C103.038 20.6815 102.566 20.8097 101.916 20.8097C101.267 20.8097 100.801 20.6815 100.519 20.4232C100.236 20.167 100.095 19.7273 100.095 19.1115C100.095 18.4958 100.242 18.0487 100.532 17.7742C100.825 17.499 101.286 17.3608 101.919 17.3608H101.918ZM123.815 17.3608L123.973 17.3635C124.541 17.3851 124.957 17.522 125.226 17.7742C125.516 18.0487 125.662 18.4958 125.662 19.1115C125.662 19.7273 125.516 20.1643 125.226 20.4232C124.936 20.6815 124.464 20.8097 123.814 20.8097C123.165 20.8097 122.699 20.6815 122.417 20.4232C122.134 20.167 121.993 19.7273 121.993 19.1115C121.993 18.4958 122.14 18.0487 122.43 17.7742C122.723 17.499 123.183 17.3608 123.817 17.3608H123.815Z" fill="white"/>
</g>
<defs>
<clipPath id="clip0_10901_1244">
<rect width="110.602" height="24.2784" fill="white" transform="translate(33.6992 17.3608)"/>
</clipPath>
</defs>
</svg>
