<svg width="180" height="59" viewBox="0 0 180 59" fill="none" xmlns="http://www.w3.org/2000/svg">
<g clip-path="url(#clip0_10901_1314)">
<path d="M59.9615 20.3781V25.0886C59.7768 24.8818 59.5673 24.6861 59.3193 24.4987C58.9196 24.1983 58.4621 23.964 57.9494 23.7931C57.4367 23.6222 56.9075 23.5368 56.3645 23.5368C55.3667 23.5368 54.4682 23.7931 53.6688 24.3058C52.8695 24.8185 52.2411 25.5158 51.7863 26.3923C51.3287 27.2688 51.1027 28.2721 51.1027 29.3994C51.1027 30.5268 51.3343 31.5493 51.7973 32.4258C52.2604 33.3023 52.8916 33.9942 53.6909 34.5013C54.4902 35.0085 55.3943 35.2621 56.4086 35.2621C56.9213 35.2621 57.4202 35.1794 57.9053 35.0168C58.3904 34.8541 58.8204 34.6364 59.2007 34.3635C59.5232 34.132 59.7878 33.8757 60.0001 33.5973L60.0221 35.0471H62.5028V20.3781H59.956H59.9615ZM59.6417 31.3151C59.3716 31.8636 58.9968 32.2991 58.5172 32.6215C58.0403 32.9413 57.4863 33.1039 56.8579 33.1039C56.2294 33.1039 55.6809 32.944 55.2096 32.6215C54.7383 32.2991 54.3689 31.8663 54.0961 31.3151C53.826 30.7665 53.6909 30.1271 53.6909 29.3994C53.6909 28.6718 53.826 28.0516 54.0961 27.4948C54.3662 26.938 54.7383 26.5026 55.2096 26.1883C55.6809 25.8741 56.2294 25.717 56.8579 25.717C57.4863 25.717 58.0376 25.8741 58.5172 26.1883C58.994 26.5026 59.3689 26.938 59.6417 27.4948C59.9119 28.0516 60.0469 28.6855 60.0469 29.3994C60.0469 30.1133 59.9119 30.7665 59.6417 31.3151Z" fill="white"/>
<path d="M72.2408 29.744C71.9707 29.4435 71.6013 29.1844 71.1383 28.9639C70.6752 28.7434 70.0854 28.5395 69.3743 28.3548C68.8891 28.2252 68.4867 28.1012 68.1642 27.9799C67.8445 27.8587 67.6102 27.7484 67.4696 27.6492C67.3263 27.5362 67.2161 27.4039 67.1389 27.2523C67.059 27.1034 67.0149 26.9353 67.0011 26.7506C67.0011 26.5659 67.0397 26.3951 67.1196 26.2379C67.1968 26.0808 67.3125 25.9513 67.4614 25.8521C67.6102 25.7528 67.7949 25.6784 68.0181 25.6288C68.2387 25.5792 68.484 25.5544 68.7568 25.5544C69.0297 25.5544 69.3274 25.6123 69.6554 25.7253C69.9834 25.841 70.3114 25.9954 70.6394 26.1966C70.9674 26.3978 71.2596 26.6321 71.5159 26.9022L71.6978 26.6982L70.5154 23.8289C70.4382 23.8041 70.3638 23.7793 70.2838 23.76C69.7491 23.6167 69.2034 23.545 68.6466 23.545C67.8776 23.545 67.1775 23.6884 66.549 23.9723C65.9206 24.2589 65.4217 24.6503 65.0524 25.1492C64.6803 25.6481 64.4956 26.2187 64.4956 26.8609C64.4956 27.2605 64.548 27.6271 64.6555 27.9634C64.763 28.2997 64.9366 28.6084 65.1792 28.895C65.4658 29.223 65.8682 29.5179 66.3892 29.7826C66.9101 30.0472 67.5634 30.2787 68.3461 30.4771C68.8313 30.6067 69.2227 30.728 69.5231 30.841C69.8235 30.954 70.044 31.0615 70.1874 31.1607C70.4437 31.3619 70.5732 31.632 70.5732 31.9738C70.5732 32.1723 70.5347 32.3514 70.4547 32.5085C70.3748 32.6656 70.2645 32.8007 70.124 32.9137C69.9806 33.0295 69.8097 33.1149 69.6113 33.17C69.4128 33.2279 69.1896 33.2555 68.947 33.2555C68.3489 33.2555 67.7866 33.148 67.2684 32.933C66.7475 32.718 66.2734 32.3707 65.8462 31.8856L64.1786 33.3189C64.6775 33.9473 65.3197 34.4269 66.1053 34.7632C66.8908 35.0967 67.7728 35.2648 68.7596 35.2648C69.5589 35.2648 70.2783 35.1187 70.9205 34.8266C71.5628 34.5344 72.0699 34.1237 72.4393 33.5973C72.8086 33.0708 72.996 32.4782 72.996 31.8222C72.996 31.395 72.9437 31.0063 72.8362 30.6563C72.7287 30.3062 72.533 30.0031 72.2491 29.7467L72.2408 29.744Z" fill="white"/>
<path d="M81.8686 23.6801L77.8416 33.6551H77.7893L73.7789 23.6801H72.85L77.4916 35.0636H78.0925L82.7754 23.6801H81.8686Z" fill="white"/>
<path d="M94.1093 29.4463L94.1314 28.793C94.1589 28.002 94.0542 27.2771 93.8172 26.6348C93.5801 25.9954 93.2328 25.4386 92.7891 24.9783C92.3425 24.518 91.8078 24.1624 91.1959 23.9171C90.584 23.6718 89.9087 23.5478 89.1893 23.5478C88.3983 23.5478 87.6568 23.6911 86.987 23.9695C86.3173 24.2506 85.7384 24.6558 85.2644 25.1713C84.7903 25.6894 84.4154 26.3124 84.1481 27.0262C83.8807 27.7374 83.7456 28.5312 83.7456 29.3801C83.7456 30.5185 83.9854 31.5438 84.4623 32.4286C84.9364 33.3134 85.6089 34.0162 86.4578 34.5206C87.3068 35.025 88.299 35.2786 89.4071 35.2786C89.9528 35.2786 90.482 35.2097 90.9809 35.0719C91.4771 34.9341 91.9511 34.7411 92.3922 34.4958C92.8249 34.2533 93.219 33.9666 93.5608 33.6414L93.1308 33.0047C92.6154 33.487 92.0504 33.8564 91.455 34.1017C90.8514 34.3497 90.1871 34.4738 89.476 34.4738C88.5168 34.4738 87.6651 34.2533 86.9374 33.8178C86.2098 33.3823 85.6365 32.7759 85.2313 32.0124C84.8426 31.2847 84.6304 30.4358 84.6001 29.4876V29.4408H94.1121L94.1093 29.4463ZM84.6028 29.3663V29.3443C84.6028 29.3443 84.6028 29.3553 84.6028 29.3608C84.6028 29.3608 84.6028 29.3636 84.6028 29.3663ZM85.1734 26.7479C85.5427 26.0009 86.0802 25.4055 86.7721 24.9866C87.4611 24.5649 88.2825 24.3526 89.2114 24.3526C89.9528 24.3526 90.6336 24.529 91.2373 24.8791C91.8409 25.2291 92.3343 25.717 92.7036 26.3344C93.0757 26.9518 93.2631 27.6795 93.2631 28.4926L93.2576 28.691H84.6359V28.6442C84.7159 27.9468 84.895 27.3129 85.1734 26.7534V26.7479Z" fill="white"/>
<path d="M144.781 29.4463L144.803 28.793C144.831 28.002 144.726 27.2771 144.489 26.6348C144.252 25.9954 143.905 25.4386 143.461 24.9783C143.014 24.518 142.48 24.1624 141.868 23.9171C141.256 23.6718 140.581 23.5478 139.861 23.5478C139.07 23.5478 138.329 23.6911 137.659 23.9695C136.989 24.2506 136.41 24.6558 135.936 25.1713C135.462 25.6894 135.087 26.3124 134.82 27.0262C134.553 27.7374 134.417 28.5312 134.417 29.3801C134.417 30.5185 134.657 31.5438 135.134 32.4286C135.608 33.3134 136.281 34.0162 137.13 34.5206C137.979 35.025 138.971 35.2786 140.079 35.2786C140.625 35.2786 141.154 35.2097 141.653 35.0719C142.149 34.9341 142.623 34.7411 143.064 34.4958C143.497 34.2533 143.891 33.9666 144.233 33.6414L143.803 33.0047C143.287 33.487 142.722 33.8564 142.127 34.1017C141.523 34.3497 140.859 34.4738 140.148 34.4738C139.189 34.4738 138.337 34.2533 137.609 33.8178C136.882 33.3823 136.308 32.7759 135.903 32.0124C135.514 31.2847 135.302 30.4358 135.272 29.4876V29.4408H144.784L144.781 29.4463ZM135.275 29.3663V29.3443C135.275 29.3443 135.275 29.3553 135.275 29.3608C135.275 29.3608 135.275 29.3636 135.275 29.3663ZM135.845 26.7479C136.215 26.0009 136.752 25.4055 137.444 24.9866C138.133 24.5649 138.954 24.3526 139.883 24.3526C140.625 24.3526 141.305 24.529 141.909 24.8791C142.513 25.2291 143.006 25.717 143.375 26.3344C143.748 26.9518 143.935 27.6795 143.935 28.4926L143.929 28.691H135.308V28.6442C135.388 27.9468 135.567 27.3129 135.845 26.7534V26.7479Z" fill="white"/>
<path d="M105.033 25.4552C104.721 24.7936 104.266 24.3085 103.671 23.9971C103.076 23.6856 102.351 23.5285 101.493 23.5285C100.826 23.5285 100.187 23.658 99.5778 23.9199C98.9687 24.1817 98.445 24.5235 98.0095 24.9425C97.7339 25.2098 97.5189 25.4965 97.3535 25.7997L97.3342 23.658H96.4632V35.0912H97.3563V27.1861C97.3563 26.9243 97.4555 26.6348 97.6512 26.3151C97.8469 25.9954 98.1225 25.6867 98.4781 25.389C98.8336 25.0913 99.2498 24.8488 99.7294 24.6586C100.209 24.4712 100.738 24.3747 101.32 24.3747C102.031 24.3609 102.629 24.4767 103.117 24.722C103.602 24.97 103.974 25.3642 104.228 25.9099C104.481 26.4529 104.608 27.1558 104.608 28.0102V35.0857H105.501V27.9909C105.501 26.9601 105.344 26.1139 105.033 25.4552Z" fill="white"/>
<path d="M114.448 23.6332H111.311V20.7143H110.418V23.6332H107.48V24.5042H110.418V35.0636H111.311V24.5042H114.448V23.6332Z" fill="white"/>
<path d="M124.398 23.658V31.5411C124.398 31.8167 124.305 32.1226 124.114 32.4562C123.924 32.7897 123.66 33.1094 123.321 33.4153C122.979 33.7213 122.59 33.9749 122.155 34.1761C121.719 34.3801 121.248 34.482 120.741 34.482C119.638 34.482 118.784 34.1706 118.183 33.5449C117.579 32.922 117.279 31.949 117.279 30.626V23.658H116.386V30.7776C116.386 31.8084 116.548 32.6574 116.876 33.3244C117.204 33.9914 117.67 34.4903 118.282 34.8155C118.891 35.1408 119.633 35.3062 120.504 35.3062C121.157 35.3062 121.763 35.1766 122.323 34.9148C122.882 34.6529 123.365 34.3029 123.77 33.8591C124.034 33.5725 124.244 33.2665 124.409 32.9468L124.445 35.0912H125.294V23.658H124.398Z" fill="white"/>
<path d="M133.566 23.5698C133.348 23.5395 133.117 23.5257 132.868 23.5257C132.185 23.5257 131.584 23.6663 131.06 23.9502C130.537 24.2341 130.112 24.5952 129.787 25.0389C129.564 25.3394 129.395 25.6536 129.271 25.9788L129.255 23.6553H128.384V35.0884H129.299V27.9689C129.299 27.5775 129.371 27.1751 129.517 26.7616C129.663 26.3482 129.881 25.9678 130.17 25.6178C130.459 25.2705 130.812 24.9866 131.226 24.7688C131.639 24.5511 132.116 24.4408 132.651 24.4408C132.824 24.4408 133.017 24.4601 133.227 24.496C133.436 24.5318 133.651 24.5869 133.869 24.6586L134.131 23.6994C133.971 23.6415 133.784 23.5974 133.566 23.5698Z" fill="white"/>
<path d="M38.4761 32.0593C36.668 32.0593 35.1934 33.5311 35.1934 35.342C35.1934 37.1529 36.6652 38.6248 38.4761 38.6248C40.287 38.6248 41.7589 37.1529 41.7589 35.342C41.7589 33.5311 40.287 32.0593 38.4761 32.0593ZM40.1078 35.6865H38.8785V36.9269H38.1398V35.6865H36.916V34.9754H38.1398V33.7351H38.8785V34.9754H40.1078V35.6865Z" fill="white"/>
<path d="M49.0603 25.2402C48.7103 24.6779 48.2114 24.2534 47.5636 23.9668C46.9132 23.6829 46.1469 23.5395 45.2649 23.5395C44.3222 23.5395 43.4485 23.7242 42.6436 24.0963C41.8388 24.4684 41.1001 25.0086 40.4303 25.7225L42.0345 27.3267C42.4342 26.814 42.8807 26.4364 43.3713 26.1938C43.8647 25.9513 44.4077 25.83 45.0085 25.83C45.6645 25.83 46.1993 26.0092 46.6127 26.3647C47.0262 26.7203 47.2329 27.2054 47.2329 27.8201V28.2473H45.2208C44.3939 28.2473 43.6635 28.3272 43.0268 28.4816C42.3928 28.6387 41.8636 28.8675 41.4419 29.1651C41.0202 29.4628 40.7032 29.8404 40.491 30.2897C40.3008 30.6921 40.1988 31.1579 40.1795 31.6789C41.4695 32.2798 42.3873 33.5394 42.5031 35.025C42.9523 35.1794 43.443 35.2621 43.9777 35.2621C44.5124 35.2621 45.0664 35.1546 45.5708 34.9396C46.078 34.7246 46.5466 34.4324 46.9821 34.0631C47.0675 33.9914 47.1474 33.9142 47.2274 33.8343V35.0471H49.5813V27.3046C49.5813 26.4915 49.4076 25.8025 49.0576 25.2402H49.0603ZM47.2301 31.7974C47.0978 31.9655 46.9435 32.1282 46.7698 32.2798C46.4336 32.5719 46.0532 32.8007 45.626 32.9633C45.1987 33.1287 44.7495 33.2086 44.2781 33.2086C43.9501 33.2086 43.6607 33.148 43.4126 33.0267C43.1618 32.9054 42.9634 32.7373 42.8145 32.5251C42.6657 32.3101 42.5885 32.062 42.5885 31.7754C42.5885 31.5052 42.6409 31.2682 42.7484 31.0697C42.8559 30.8713 43.0157 30.7004 43.2307 30.5571C43.4457 30.4137 43.7048 30.309 44.0108 30.2373C44.3167 30.1657 44.664 30.1298 45.0471 30.1298H47.2301V31.8002V31.7974Z" fill="white"/>
</g>
<defs>
<clipPath id="clip0_10901_1314">
<rect width="109.613" height="18.244" fill="white" transform="translate(35.1934 20.3781)"/>
</clipPath>
</defs>
</svg>
